# xmcd CD database file
#
# Track frame offsets:
#	150
#	58292
#	112677
#	155210
#	170605
#	177160
#	206442
#	246330
#	297067
#
# Disc length: 4191 seconds
#
# Revision: 0
# Processed by: cddbd v1.5.1PL2 Copyright (c) Steve Scherf et al.
# Submitted via: CDex 1.51
#
DISCID=7f105d09
DTITLE=Simon H. Fell - Composition No. 30 [CD1]
DYEAR=1998
DGENRE=Jazz
TTITLE0=Part 1: Prelude, Swing and Variations
TTITLE1=Part 2: Klangfarbenmelodie
TTITLE2=Part 3: Blues
TTITLE3=Construct 1
TTITLE4=Construct 2
TTITLE5=Quartet
TTITLE6=Construct 3
TTITLE7=Part 4: Rhythm
TTITLE8=Interlude
EXTD=YEAR: 1998
EXTT0=
EXTT1=
EXTT2=
EXTT3=
EXTT4=
EXTT5=
EXTT6=
EXTT7=
EXTT8=
PLAYORDER=
